<?xml version="1.0" encoding="UTF-8"?>
<svg width="400" height="500" viewBox="0 0 400 500" xmlns="http://www.w3.org/2000/svg">
  <!-- Browser Window Background -->
  <rect width="400" height="500" fill="white" rx="8"/>
  
  <!-- Browser Header -->
  <rect width="400" height="30" fill="#f3f4f6" rx="8 8 0 0"/>
  <circle cx="15" cy="15" r="5" fill="#ef4444"/>
  <circle cx="30" cy="15" r="5" fill="#f59e0b"/>
  <circle cx="45" cy="15" r="5" fill="#22c55e"/>
  <text x="200" y="20" text-anchor="middle" font-family="system-ui" font-size="10" fill="#6b7280">Mail</text>
  
  <!-- Email Header Section -->
  <rect x="0" y="30" width="400" height="50" fill="#f9fafb"/>
  <text x="20" y="50" font-family="system-ui" font-size="10" fill="#6b7280">To: your.email@company.com</text>
  <text x="20" y="65" font-family="system-ui" font-size="12" font-weight="600" fill="#1f2937">📧 Bi-Weekly Report Email Preview</text>
  
  <!-- Report Header -->
  <rect x="20" y="100" width="360" height="80" fill="#1a1a1a" rx="8"/>
  <text x="200" y="125" text-anchor="middle" font-family="system-ui" font-size="16" font-weight="bold" fill="white">Bi-Weekly Shipping Intelligence Report</text>
  <text x="200" y="145" text-anchor="middle" font-family="system-ui" font-size="12" fill="#d1d5db">For https://yourwebsite.com</text>
  <text x="200" y="160" text-anchor="middle" font-family="system-ui" font-size="10" fill="#9ca3af">Generated on 7/2/2025</text>
  
  <!-- Market Insight Section -->
  <rect x="20" y="200" width="360" height="110" fill="white" stroke="#e5e7eb" rx="8"/>
  <text x="30" y="225" font-family="system-ui" font-size="12" fill="#9ca3af">The market average free shipping threshold</text>
  <text x="30" y="245" font-family="system-ui" font-size="12" fill="#9ca3af">rose by </text>
  <text x="75" y="245" font-family="system-ui" font-size="12" font-weight="bold" fill="#1f2937">$5.00</text>
  <text x="115" y="245" font-family="system-ui" font-size="12" fill="#9ca3af"> in the past two weeks.</text>
  
  <!-- Large Number Display -->
  <text x="30" y="285" font-family="system-ui" font-size="36" font-weight="bold" fill="#1f2937">$63</text>
  <text x="30" y="300" font-family="system-ui" font-size="10" fill="#9ca3af">Average threshold across key competitors</text>
  
  <!-- Gauge Visualization -->
  <g transform="translate(320, 255)">
    <!-- Background arc -->
    <path d="M -20 0 A 20 20 0 0 1 20 0" fill="none" stroke="#e5e7eb" stroke-width="6" stroke-linecap="round"/>
    <!-- Green section -->
    <path d="M -20 0 A 20 20 0 0 1 -7 -18" fill="none" stroke="#22c55e" stroke-width="6" stroke-linecap="round"/>
    <!-- Orange section -->
    <path d="M -7 -18 A 20 20 0 0 1 7 -18" fill="none" stroke="#f59e0b" stroke-width="6" stroke-linecap="round"/>
    <!-- Red section -->
    <path d="M 7 -18 A 20 20 0 0 1 20 0" fill="none" stroke="#ef4444" stroke-width="6" stroke-linecap="round"/>
    <!-- Needle pointing to position -->
    <line x1="0" y1="0" x2="5" y2="-17" stroke="#1f2937" stroke-width="2" stroke-linecap="round"/>
    <circle cx="0" cy="0" r="2" fill="#1f2937"/>
    <!-- Labels -->
    <text x="-25" y="10" font-family="system-ui" font-size="8" fill="#6b7280">$0</text>
    <text x="15" y="-20" font-family="system-ui" font-size="8" fill="#6b7280">$100</text>
    <text x="20" y="10" font-family="system-ui" font-size="8" fill="#6b7280">$200+</text>
  </g>
  
  <!-- Competitor Updates Section -->
  <text x="30" y="340" font-family="system-ui" font-size="14" font-weight="bold" fill="#1f2937">Competitor Updates</text>
  
  <!-- Competitor Update 1 -->
  <rect x="20" y="350" width="360" height="35" fill="#dcfce7" rx="6"/>
  <text x="30" y="365" font-family="system-ui" font-size="11" font-weight="600" fill="#16a34a">EcoFashion.com</text>
  <text x="30" y="378" font-family="system-ui" font-size="10" fill="#15803d">Lowered threshold from $75 to $65 ↓</text>
  
  <!-- Competitor Update 2 -->
  <rect x="20" y="395" width="360" height="35" fill="#fee2e2" rx="6"/>
  <text x="30" y="410" font-family="system-ui" font-size="11" font-weight="600" fill="#dc2626">TrendyClothes.com</text>
  <text x="30" y="423" font-family="system-ui" font-size="10" fill="#b91c1c">Increased threshold from $50 to $60 ↑</text>
  
  <!-- Competitor Update 3 -->
  <rect x="20" y="440" width="360" height="35" fill="#dbeafe" rx="6"/>
  <text x="30" y="455" font-family="system-ui" font-size="11" font-weight="600" fill="#2563eb">StyleHub.co</text>
  <text x="30" y="468" font-family="system-ui" font-size="10" fill="#1d4ed8">Added express 2-day shipping option</text>
  

  
  <!-- Border -->
  <rect width="400" height="500" fill="none" stroke="#e5e7eb" stroke-width="2" rx="8"/>
</svg>