<?xml version="1.0" encoding="UTF-8"?>
<svg width="400" height="530" viewBox="0 0 400 530" xmlns="http://www.w3.org/2000/svg">
  <!-- Browser Window Background -->
  <rect width="400" height="530" fill="white" rx="8"/>
  
  <!-- Browser Header -->
  <rect width="400" height="30" fill="#f3f4f6" rx="8 8 0 0"/>
  <circle cx="15" cy="15" r="5" fill="#ef4444"/>
  <circle cx="30" cy="15" r="5" fill="#f59e0b"/>
  <circle cx="45" cy="15" r="5" fill="#22c55e"/>
  <text x="200" y="20" text-anchor="middle" font-family="system-ui" font-size="10" fill="#6b7280">Competitor Analysis Results</text>
  
  <!-- Page Header -->
  <rect x="20" y="50" width="360" height="80" fill="#1a1a1a" rx="8"/>
  <text x="200" y="75" text-anchor="middle" font-family="system-ui" font-size="16" font-weight="bold" fill="white">Business Analysis</text>
  <text x="200" y="95" text-anchor="middle" font-family="system-ui" font-size="12" fill="#d1d5db">YourBrand.com</text>
  <text x="200" y="110" text-anchor="middle" font-family="system-ui" font-size="10" fill="#9ca3af">Current Shipping: $75 minimum</text>
  
  <!-- Business Analysis Section -->
  <rect x="20" y="150" width="360" height="110" fill="#f9fafb" stroke="#e5e7eb" rx="8"/>
  <text x="35" y="175" font-family="system-ui" font-size="12" font-weight="bold" fill="#1f2937">Industry:</text>
  <text x="95" y="175" font-family="system-ui" font-size="11" fill="#4b5563">E-commerce Apparel</text>
  
  <text x="35" y="200" font-family="system-ui" font-size="12" font-weight="bold" fill="#1f2937">Target Market:</text>
  <text x="35" y="220" font-family="system-ui" font-size="10" fill="#6b7280">• Young professionals seeking sustainable fashion</text>
  <text x="35" y="235" font-family="system-ui" font-size="10" fill="#6b7280">• Eco-conscious consumers aged 25-40</text>
  <text x="35" y="250" font-family="system-ui" font-size="10" fill="#6b7280">• Quality-focused urban shoppers</text>
  
  <!-- Competitor Analysis Header -->
  <text x="35" y="290" font-family="system-ui" font-size="16" font-weight="bold" fill="#1f2937">Competitor Analysis</text>
  
  <!-- Competitor Card 1 -->
  <rect x="20" y="300" width="360" height="65" fill="white" stroke="#e5e7eb" rx="6"/>
  <circle cx="45" cy="325" r="10" fill="#3b82f6"/>
  <text x="45" y="329" text-anchor="middle" font-family="system-ui" font-size="8" fill="white" font-weight="bold">S</text>
  <text x="65" y="320" font-family="system-ui" font-size="11" font-weight="600" fill="#1f2937">SustainableFashion.com</text>
  <text x="65" y="335" font-family="system-ui" font-size="9" fill="#6b7280">Eco-friendly clothing and accessories</text>
  
  <!-- Shipping Bar 1 -->
  <rect x="250" y="318" width="75" height="8" fill="#e5e7eb" rx="4"/>
  <rect x="250" y="318" width="37" height="8" fill="#22c55e" rx="4"/>
  <text x="335" y="324" font-family="system-ui" font-size="9" fill="#1f2937">$50</text>
  
  <text x="65" y="350" font-family="system-ui" font-size="9" fill="#4b5563">• Free shipping over $50</text>
  
  <!-- Competitor Card 2 -->
  <rect x="20" y="375" width="360" height="65" fill="white" stroke="#e5e7eb" rx="6"/>
  <circle cx="45" cy="400" r="10" fill="#f59e0b"/>
  <text x="45" y="404" text-anchor="middle" font-family="system-ui" font-size="8" fill="white" font-weight="bold">E</text>
  <text x="65" y="395" font-family="system-ui" font-size="11" font-weight="600" fill="#1f2937">EcoTrend.co</text>
  <text x="65" y="410" font-family="system-ui" font-size="9" fill="#6b7280">Modern sustainable apparel</text>
  
  <!-- Shipping Bar 2 -->
  <rect x="250" y="393" width="75" height="8" fill="#e5e7eb" rx="4"/>
  <rect x="250" y="393" width="47" height="8" fill="#f59e0b" rx="4"/>
  <text x="335" y="399" font-family="system-ui" font-size="9" fill="#1f2937">$65</text>
  
  <text x="65" y="425" font-family="system-ui" font-size="9" fill="#4b5563">• Free shipping over $65</text>
  
  <!-- Competitor Card 3 -->
  <rect x="20" y="450" width="360" height="65" fill="white" stroke="#e5e7eb" rx="6"/>
  <circle cx="45" cy="475" r="10" fill="#ef4444"/>
  <text x="45" y="479" text-anchor="middle" font-family="system-ui" font-size="8" fill="white" font-weight="bold">G</text>
  <text x="65" y="470" font-family="system-ui" font-size="11" font-weight="600" fill="#1f2937">GreenStyle.com</text>
  <text x="65" y="485" font-family="system-ui" font-size="9" fill="#6b7280">Premium eco-conscious fashion</text>
  
  <!-- Shipping Bar 3 -->
  <rect x="250" y="468" width="75" height="8" fill="#e5e7eb" rx="4"/>
  <rect x="250" y="468" width="56" height="8" fill="#ef4444" rx="4"/>
  <text x="335" y="474" font-family="system-ui" font-size="9" fill="#1f2937">$75</text>
  
  <text x="65" y="500" font-family="system-ui" font-size="9" fill="#4b5563">• Free shipping over $75</text>
  
  <!-- Border -->
  <rect width="400" height="530" fill="none" stroke="#e5e7eb" stroke-width="2" rx="8"/>
</svg>