<?xml version="1.0" encoding="UTF-8"?>
<svg width="400" height="520" viewBox="0 0 400 520" xmlns="http://www.w3.org/2000/svg">
  <!-- Email Window Background -->
  <rect width="400" height="520" fill="white" rx="8"/>
  
  <!-- Email Header Bar -->
  <rect width="400" height="30" fill="#f3f4f6" rx="8 8 0 0"/>
  <circle cx="15" cy="15" r="5" fill="#ef4444"/>
  <circle cx="30" cy="15" r="5" fill="#f59e0b"/>
  <circle cx="45" cy="15" r="5" fill="#22c55e"/>
  <text x="200" y="20" text-anchor="middle" font-family="system-ui" font-size="10" fill="#6b7280">📧 Personalized Action Plan</text>
  
  <!-- Email Header Section -->
  <rect x="0" y="30" width="400" height="50" fill="#f9fafb"/>
  <text x="20" y="50" font-family="system-ui" font-size="10" fill="#6b7280">To: your.email@company.com</text>
  <text x="20" y="65" font-family="system-ui" font-size="12" font-weight="600" fill="#1f2937">Your Personalized Shipping Action Plan</text>
  
  <!-- Report Header -->
  <rect x="20" y="100" width="360" height="60" fill="#1a1a1a" rx="8"/>
  <text x="200" y="125" text-anchor="middle" font-family="system-ui" font-size="16" font-weight="bold" fill="white">Shipping Strategy Action Plan</text>
  <text x="200" y="145" text-anchor="middle" font-family="system-ui" font-size="12" fill="#d1d5db">Based on your competitor analysis</text>
  
  <!-- Competitive Grade Section -->
  <rect x="20" y="180" width="360" height="90" fill="#f8fafc" stroke="#e2e8f0" rx="8"/>
  <text x="35" y="205" font-family="system-ui" font-size="14" font-weight="bold" fill="#1f2937">Your Competitive Shipping Grade</text>
  
  <!-- Grade Display -->
  <circle cx="75" cy="240" r="25" fill="#ef4444" stroke="#dc2626" stroke-width="3"/>
  <text x="75" y="248" text-anchor="middle" font-family="system-ui" font-size="24" font-weight="bold" fill="white">C</text>
  
  <!-- Grade Description -->
  <text x="115" y="225" font-family="system-ui" font-size="11" fill="#1f2937">Your $75 minimum is higher than 60% of competi</text>
  <text x="115" y="240" font-family="system-ui" font-size="10" fill="#6b7280">Consider lowering to $50-65 range for better compet</text>
  <text x="115" y="255" font-family="system-ui" font-size="10" fill="#6b7280">Market average: $58</text>
  
  <!-- Action Plan Timeline -->
  <text x="35" y="300" font-family="system-ui" font-size="14" font-weight="bold" fill="#1f2937">Implementation Timeline</text>
  
  <!-- Week 1 Action -->
  <rect x="20" y="315" width="360" height="50" fill="white" stroke="#22c55e" stroke-width="2" rx="6"/>
  <rect x="25" y="320" width="8" height="40" fill="#22c55e" rx="2"/>
  <text x="45" y="335" font-family="system-ui" font-size="11" font-weight="600" fill="#22c55e">THIS WEEK</text>
  <text x="45" y="350" font-family="system-ui" font-size="10" fill="#1f2937">• Test $65 free shipping threshold</text>
  <text x="45" y="360" font-family="system-ui" font-size="10" fill="#1f2937">• Monitor conversion rates</text>
  
  <!-- 30 Day Action -->
  <rect x="20" y="375" width="360" height="50" fill="white" stroke="#f59e0b" stroke-width="2" rx="6"/>
  <rect x="25" y="380" width="8" height="40" fill="#f59e0b" rx="2"/>
  <text x="45" y="395" font-family="system-ui" font-size="11" font-weight="600" fill="#f59e0b">30 DAYS</text>
  <text x="45" y="410" font-family="system-ui" font-size="10" fill="#1f2937">• Implement tiered shipping offers</text>
  <text x="45" y="420" font-family="system-ui" font-size="10" fill="#1f2937">• Add express shipping options</text>
  
  <!-- 60 Day Action -->
  <rect x="20" y="435" width="360" height="50" fill="white" stroke="#8b5cf6" stroke-width="2" rx="6"/>
  <rect x="25" y="440" width="8" height="40" fill="#8b5cf6" rx="2"/>
  <text x="45" y="455" font-family="system-ui" font-size="11" font-weight="600" fill="#8b5cf6">60-90 DAYS</text>
  <text x="45" y="470" font-family="system-ui" font-size="10" fill="#1f2937">• Optimize shipping zones</text>
  <text x="45" y="480" font-family="system-ui" font-size="10" fill="#1f2937">• Launch subscription shipping</text>
  
  <!-- Border -->
  <rect width="400" height="520" fill="none" stroke="#e5e7eb" stroke-width="2" rx="8"/>
</svg>